<svg width="4" height="5" viewBox="0 0 4 22" fill="none" xmlns="http://www.w3.org/2000/svg">
<path d="M0.21875 1.91247C0.21875 1.42916 0.389375 1.01042 0.730625 0.65625C1.07185 0.302083 1.48949 0.125 1.98353 0.125C2.49451 0.125 2.92188 0.300094 3.26563 0.650282C3.60937 1.00045 3.78125 1.42141 3.78125 1.91316C3.78125 2.39397 3.61115 2.82031 3.27094 3.19219C2.93075 3.56406 2.51259 3.75 2.01647 3.75C1.50549 3.75 1.07813 3.56457 0.734375 3.19372C0.390625 2.82287 0.21875 2.39578 0.21875 1.91247ZM0.21875 11.0165C0.21875 10.5055 0.389375 10.0781 0.730625 9.73438C1.07185 9.39063 1.48949 9.21875 1.98353 9.21875C2.49451 9.21875 2.92187 9.38938 3.26562 9.73063C3.60937 10.0719 3.78125 10.4895 3.78125 10.9835C3.78125 11.4945 3.61114 11.9219 3.27094 12.2656C2.93075 12.6094 2.51259 12.7813 2.01647 12.7813C1.50549 12.7813 1.07812 12.6111 0.734375 12.2709C0.390625 11.9308 0.21875 11.5126 0.21875 11.0165ZM0.218749 20.0879C0.218749 19.5787 0.389375 19.1451 0.730625 18.787C1.07185 18.429 1.48949 18.25 1.98353 18.25C2.49451 18.25 2.92187 18.4298 3.26562 18.7894C3.60937 19.149 3.78125 19.5813 3.78125 20.0863C3.78125 20.5913 3.61114 21.0208 3.27094 21.375C2.93075 21.7292 2.51259 21.9063 2.01647 21.9063C1.50549 21.9063 1.07812 21.7284 0.734374 21.3726C0.390624 21.0168 0.218749 20.5886 0.218749 20.0879Z" fill="#667085"/>
</svg>
